# Blender v2.79 (sub 0) OBJ File: ''
# www.blender.org
mtllib 3D.mtl
o big_backdrop_Untitled.004
v -0.809546 0.904158 -0.044386
v -0.809545 0.809324 -0.044386
v -0.904379 0.809324 -0.044386
v -0.866394 0.866173 -0.044386
v -0.918209 0.739795 -0.044386
v 0.904379 0.809324 -0.044386
v 0.809546 0.809324 -0.044386
v 0.809546 0.904158 -0.044386
v 0.866394 0.866173 -0.044386
v 0.918209 0.739795 -0.044386
v 0.809546 -0.809324 -0.044386
v -0.809546 -0.809324 -0.044386
v 0.740016 0.917988 -0.044386
v 0.904379 -0.809324 -0.044386
v 0.866394 -0.866173 -0.044386
v 0.809546 -0.904158 -0.044386
v 0.740016 -0.917988 -0.044386
v -0.740016 -0.917988 -0.044386
v -0.904379 -0.809324 -0.044386
v -0.809546 -0.904158 -0.044386
v -0.866394 -0.866173 -0.044386
v 0.918209 -0.739795 -0.044386
v -0.740016 0.917988 -0.044386
v -0.918209 -0.739795 -0.044386
v 0.809546 0.904158 0.046907
v 0.809545 0.809324 0.046907
v 0.904379 0.809324 0.046907
v 0.866394 0.866173 0.046907
v 0.918209 0.739795 0.046907
v -0.904379 0.809324 0.046907
v -0.809546 0.809324 0.046907
v -0.809546 0.904158 0.046907
v -0.866394 0.866173 0.046907
v -0.918209 0.739795 0.046907
v -0.809546 -0.809324 0.046907
v 0.809546 -0.809324 0.046907
v -0.740016 0.917988 0.046907
v -0.809546 -0.904158 0.046907
v -0.904379 -0.809324 0.046907
v -0.866394 -0.866173 0.046907
v 0.740016 -0.917988 0.046907
v -0.740016 -0.917988 0.046907
v 0.809546 -0.904158 0.046907
v 0.866394 -0.866173 0.046907
v 0.904379 -0.809324 0.046907
v -0.918209 -0.739795 0.046907
v 0.740016 0.917988 0.046907
v 0.918209 -0.739795 0.046907
vt 0.940828 0.992468
vt 0.940828 0.940814
vt 0.992469 0.940814
vt 0.971784 0.971778
vt 1.000000 0.902944
vt 0.007531 0.940814
vt 0.059171 0.940814
vt 0.059171 0.992468
vt 0.028215 0.971778
vt -0.000000 0.902944
vt 0.059171 0.059186
vt 0.940828 0.059186
vt 0.097033 1.000000
vt 0.007531 0.059186
vt 0.028215 0.028222
vt 0.059171 0.007533
vt 0.097033 0.000000
vt 0.902967 0.000000
vt 0.992469 0.059186
vt 0.940828 0.007533
vt 0.971784 0.028222
vt -0.000000 0.097057
vt 0.902967 1.000000
vt 1.000000 0.097057
vt 0.940828 0.992468
vt 0.940828 0.940814
vt 0.992469 0.940814
vt 0.971784 0.971778
vt 1.000000 0.902944
vt 0.007531 0.940814
vt 0.059171 0.940814
vt 0.059171 0.992468
vt 0.028215 0.971778
vt -0.000000 0.902944
vt 0.059171 0.059186
vt 0.940828 0.059186
vt 0.097033 1.000000
vt 0.059171 0.007533
vt 0.007531 0.059186
vt 0.028215 0.028222
vt 0.902967 0.000000
vt 0.097033 0.000000
vt 0.940828 0.007533
vt 0.971784 0.028222
vt 0.992469 0.059186
vt -0.000000 0.097057
vt 0.902967 1.000000
vt 1.000000 0.097057
vn 0.0109 -0.0265 -0.9996
vn 0.0000 0.0000 -1.0000
vn 0.0265 -0.0109 -0.9996
vn 0.0163 -0.0163 -0.9997
vn 0.0112 -0.0003 -0.9999
vn -0.0265 -0.0109 -0.9996
vn -0.0109 -0.0265 -0.9996
vn -0.0163 -0.0163 -0.9997
vn -0.0112 -0.0003 -0.9999
vn -0.0003 -0.0112 -0.9999
vn -0.0265 0.0109 -0.9996
vn -0.0163 0.0163 -0.9997
vn -0.0109 0.0265 -0.9996
vn -0.0003 0.0112 -0.9999
vn 0.0003 0.0112 -0.9999
vn 0.0265 0.0109 -0.9996
vn 0.0109 0.0265 -0.9996
vn 0.0163 0.0163 -0.9997
vn -0.0112 0.0003 -0.9999
vn 0.0003 -0.0112 -0.9999
vn 0.0112 0.0003 -0.9999
vn -0.0109 -0.0265 0.9996
vn -0.0000 -0.0000 1.0000
vn -0.0265 -0.0109 0.9996
vn -0.0163 -0.0163 0.9997
vn -0.0112 -0.0003 0.9999
vn 0.0265 -0.0109 0.9996
vn 0.0109 -0.0265 0.9996
vn 0.0163 -0.0163 0.9997
vn 0.0112 -0.0003 0.9999
vn 0.0003 -0.0112 0.9999
vn 0.0109 0.0265 0.9996
vn 0.0265 0.0109 0.9996
vn 0.0163 0.0163 0.9997
vn -0.0003 0.0112 0.9999
vn 0.0003 0.0112 0.9999
vn -0.0109 0.0265 0.9996
vn -0.0163 0.0163 0.9997
vn -0.0265 0.0109 0.9996
vn 0.0112 0.0003 0.9999
vn -0.0003 -0.0112 0.9999
vn -0.0112 0.0003 0.9999
usemtl lambert3
s 1
f 1/1/1 2/2/2 3/3/3 4/4/4
f 2/2/2 5/5/5 3/3/3
f 6/6/6 7/7/2 8/8/7 9/9/8
f 10/10/9 7/7/2 6/6/6
f 7/7/2 11/11/2 12/12/2 2/2/2
f 8/8/7 7/7/2 13/13/10
f 14/14/11 15/15/12 16/16/13 11/11/2
f 12/12/2 11/11/2 17/17/14 18/18/15
f 19/19/16 12/12/2 20/20/17 21/21/18
f 22/22/19 11/11/2 7/7/2 10/10/9
f 23/23/20 2/2/2 1/1/1
f 13/13/10 7/7/2 2/2/2 23/23/20
f 2/2/2 12/12/2 24/24/21 5/5/5
f 12/12/2 18/18/15 20/20/17
f 24/24/21 12/12/2 19/19/16
f 14/14/11 11/11/2 22/22/19
f 17/17/14 11/11/2 16/16/13
f 25/25/22 26/26/23 27/27/24 28/28/25
f 26/26/23 29/29/26 27/27/24
f 30/30/27 31/31/23 32/32/28 33/33/29
f 34/34/30 31/31/23 30/30/27
f 35/35/23 36/36/23 26/26/23 31/31/23
f 32/32/28 31/31/23 37/37/31
f 38/38/32 35/35/23 39/39/33 40/40/34
f 41/41/35 36/36/23 35/35/23 42/42/36
f 43/43/37 44/44/38 45/45/39 36/36/23
f 46/46/40 35/35/23 31/31/23 34/34/30
f 47/47/41 26/26/23 25/25/22
f 37/37/31 31/31/23 26/26/23 47/47/41
f 36/36/23 48/48/42 29/29/26 26/26/23
f 39/39/33 35/35/23 46/46/40
f 42/42/36 35/35/23 38/38/32
f 43/43/37 36/36/23 41/41/35
f 36/36/23 45/45/39 48/48/42
o big_frame_Untitled.005
v -0.740016 0.917988 0.046907
v -0.741764 0.935738 0.048693
v -0.742489 0.943091 0.032692
v 0.742488 0.943091 0.032692
v 0.741764 0.935738 0.048693
v 0.740016 0.917988 0.046907
v -0.918209 0.739795 -0.044386
v -0.935960 0.741543 -0.046172
v -0.943312 0.742267 -0.030170
v -0.943312 -0.742267 -0.030171
v -0.935960 -0.741543 -0.046172
v -0.918209 -0.739795 -0.044386
v -0.742489 0.943091 -0.030170
v -0.741764 0.935738 -0.046172
v -0.740016 0.917988 -0.044386
v 0.740016 0.917988 -0.044386
v 0.741764 0.935738 -0.046172
v 0.742488 0.943091 -0.030170
v 0.943312 0.742267 -0.030170
v 0.935960 0.741543 -0.046172
v 0.918209 0.739795 -0.044386
v 0.918209 -0.739795 -0.044386
v 0.935960 -0.741543 -0.046172
v 0.943312 -0.742267 -0.030171
v -0.742489 -0.943091 0.032691
v -0.741764 -0.935738 0.048693
v -0.740016 -0.917988 0.046907
v 0.740016 -0.917988 0.046907
v 0.741764 -0.935738 0.048693
v 0.742488 -0.943091 0.032691
v -0.943312 0.742267 0.032692
v -0.935960 0.741543 0.048693
v -0.918209 0.739795 0.046907
v -0.918209 -0.739795 0.046907
v -0.935960 -0.741543 0.048693
v -0.943312 -0.742267 0.032691
v -0.740016 -0.917988 -0.044386
v -0.741764 -0.935738 -0.046172
v -0.742489 -0.943091 -0.030171
v 0.742488 -0.943091 -0.030171
v 0.741764 -0.935738 -0.046172
v 0.740016 -0.917988 -0.044386
v 0.918209 0.739795 0.046907
v 0.935960 0.741543 0.048693
v 0.943312 0.742267 0.032692
v 0.943312 -0.742267 0.032691
v 0.935960 -0.741543 0.048693
v 0.918209 -0.739795 0.046907
v -0.928025 0.819119 0.032692
v -0.921100 0.816250 0.048693
v -0.904379 0.809324 0.046907
v -0.904379 0.809324 -0.044386
v -0.921100 0.816250 -0.046172
v -0.928025 0.819119 -0.030170
v -0.884492 0.884271 0.032692
v -0.879191 0.878970 0.048693
v -0.866394 0.866173 0.046907
v -0.866394 0.866173 -0.044386
v -0.879191 0.878970 -0.046172
v -0.884492 0.884271 -0.030170
v -0.819340 0.927805 0.032692
v -0.816472 0.920878 0.048693
v -0.809546 0.904158 0.046907
v -0.809546 0.904158 -0.044386
v -0.816472 0.920878 -0.046172
v -0.819340 0.927805 -0.030170
v 0.819340 0.927805 0.032692
v 0.816472 0.920878 0.048693
v 0.809546 0.904158 0.046907
v 0.809546 0.904158 -0.044386
v 0.816472 0.920878 -0.046172
v 0.819340 0.927805 -0.030170
v 0.884492 0.884271 0.032692
v 0.879192 0.878970 0.048693
v 0.866394 0.866173 0.046907
v 0.866394 0.866173 -0.044386
v 0.879192 0.878970 -0.046172
v 0.884492 0.884271 -0.030170
v 0.928025 0.819119 0.032692
v 0.921100 0.816250 0.048693
v 0.904379 0.809324 0.046907
v 0.904379 0.809324 -0.044386
v 0.921100 0.816250 -0.046172
v 0.928025 0.819119 -0.030170
v -0.819340 -0.927804 0.032691
v -0.816472 -0.920879 0.048693
v -0.809546 -0.904158 0.046907
v -0.809546 -0.904158 -0.044386
v -0.816472 -0.920879 -0.046172
v -0.819340 -0.927804 -0.030171
v -0.884492 -0.884271 0.032691
v -0.879191 -0.878970 0.048693
v -0.866394 -0.866173 0.046907
v -0.866394 -0.866173 -0.044386
v -0.879191 -0.878970 -0.046172
v -0.884492 -0.884271 -0.030171
v -0.928025 -0.819119 0.032691
v -0.921100 -0.816250 0.048693
v -0.904379 -0.809324 0.046907
v -0.904379 -0.809324 -0.044386
v -0.921100 -0.816250 -0.046172
v -0.928025 -0.819119 -0.030171
v 0.928025 -0.819119 0.032691
v 0.921100 -0.816250 0.048693
v 0.904379 -0.809324 0.046907
v 0.904379 -0.809324 -0.044386
v 0.921100 -0.816250 -0.046172
v 0.928025 -0.819119 -0.030171
v 0.884492 -0.884271 0.032691
v 0.879192 -0.878970 0.048693
v 0.866394 -0.866173 0.046907
v 0.866394 -0.866173 -0.044386
v 0.879192 -0.878970 -0.046172
v 0.884492 -0.884271 -0.030171
v 0.819340 -0.927804 0.032691
v 0.816472 -0.920879 0.048693
v 0.809546 -0.904158 0.046907
v 0.809546 -0.904158 -0.044386
v 0.816472 -0.920879 -0.046172
v 0.819340 -0.927804 -0.030171
vt 0.114315 0.764099
vt 0.094350 0.764099
vt 0.094350 0.235901
vt 0.114315 0.235901
vt 0.218055 0.996732
vt 0.219988 0.977099
vt 0.780012 0.977099
vt 0.781945 0.996732
vt 0.642900 0.236121
vt 0.662865 0.236121
vt 0.662865 0.764319
vt 0.642900 0.764319
vt 0.003268 0.781945
vt 0.022901 0.780012
vt 0.022901 0.219988
vt 0.003268 0.218055
vt 0.219988 0.977099
vt 0.218055 0.996732
vt 0.781945 0.996732
vt 0.780012 0.977099
vt 0.177296 0.764099
vt 0.157332 0.764099
vt 0.157332 0.235901
vt 0.177296 0.235901
vt 0.977099 0.780012
vt 0.996732 0.781945
vt 0.996732 0.218055
vt 0.977099 0.219988
vt 0.420081 0.764099
vt 0.400116 0.764099
vt 0.400116 0.235901
vt 0.420081 0.235901
vt 0.219988 0.022901
vt 0.218055 0.003268
vt 0.781945 0.003268
vt 0.780012 0.022901
vt 0.822703 0.235681
vt 0.842668 0.235681
vt 0.842668 0.763879
vt 0.822704 0.763879
vt 0.022901 0.780012
vt 0.003268 0.781945
vt 0.003268 0.218055
vt 0.022901 0.219988
vt 0.579919 0.236121
vt 0.599884 0.236121
vt 0.599884 0.764319
vt 0.579919 0.764319
vt 0.885685 0.235681
vt 0.905649 0.235681
vt 0.905650 0.763879
vt 0.885685 0.763879
vt 0.218055 0.003268
vt 0.219988 0.022901
vt 0.780012 0.022901
vt 0.781945 0.003268
vt 0.357100 0.764099
vt 0.337135 0.764099
vt 0.337135 0.235901
vt 0.357100 0.235901
vt 0.996732 0.781945
vt 0.977099 0.780012
vt 0.977099 0.219988
vt 0.996732 0.218055
vt 0.599884 0.155577
vt 0.642900 0.155577
vt 0.599884 0.075479
vt 0.642900 0.075479
vt 0.114315 0.924742
vt 0.114315 0.844643
vt 0.157332 0.844643
vt 0.157332 0.924742
vt 0.114315 0.155357
vt 0.157332 0.155357
vt 0.114315 0.075258
vt 0.157332 0.075258
vt 0.357100 0.924741
vt 0.357100 0.844643
vt 0.400116 0.844643
vt 0.400116 0.924741
vt 0.842668 0.155281
vt 0.885685 0.155281
vt 0.842668 0.075479
vt 0.885685 0.075479
vt 0.599884 0.924521
vt 0.599884 0.844718
vt 0.642900 0.844718
vt 0.642900 0.924521
vt 0.357100 0.155357
vt 0.400116 0.155357
vt 0.357100 0.075259
vt 0.400116 0.075259
vt 0.842668 0.924521
vt 0.842668 0.844423
vt 0.885685 0.844423
vt 0.885685 0.924521
vt 0.094350 0.155357
vt 0.856914 0.961803
vt 0.864574 0.980296
vt 0.019704 0.864574
vt 0.038197 0.856914
vt 0.662865 0.155577
vt 0.864574 0.980296
vt 0.856914 0.961803
vt 0.177296 0.155357
vt 0.980296 0.135426
vt 0.961802 0.143086
vt 0.420081 0.155357
vt 0.822703 0.155281
vt 0.143086 0.038197
vt 0.135426 0.019703
vt 0.579919 0.155577
vt 0.038197 0.856914
vt 0.019704 0.864574
vt 0.135426 0.019703
vt 0.143086 0.038197
vt 0.905649 0.155281
vt 0.337135 0.155357
vt 0.961802 0.143086
vt 0.980296 0.135426
vt 0.579919 0.075479
vt 0.080210 0.919790
vt 0.066056 0.933944
vt 0.066056 0.933944
vt 0.080210 0.919790
vt 0.662865 0.075479
vt 0.094350 0.924742
vt 0.094350 0.844643
vt 0.143086 0.961803
vt 0.135426 0.980296
vt 0.135426 0.980296
vt 0.143086 0.961803
vt 0.177297 0.924742
vt 0.177297 0.844643
vt 0.094350 0.075258
vt 0.919790 0.919790
vt 0.933944 0.933944
vt 0.933944 0.933944
vt 0.919790 0.919790
vt 0.177297 0.075258
vt 0.337135 0.924741
vt 0.337135 0.844643
vt 0.961802 0.856914
vt 0.980296 0.864574
vt 0.980296 0.864574
vt 0.961802 0.856914
vt 0.420081 0.924741
vt 0.420081 0.844643
vt 0.822703 0.075479
vt 0.080210 0.080210
vt 0.066056 0.066056
vt 0.066056 0.066056
vt 0.080210 0.080210
vt 0.905649 0.075479
vt 0.579919 0.924521
vt 0.579919 0.844718
vt 0.038197 0.143086
vt 0.019704 0.135426
vt 0.019704 0.135426
vt 0.038197 0.143086
vt 0.662865 0.924521
vt 0.662865 0.844718
vt 0.337135 0.075259
vt 0.919790 0.080210
vt 0.933944 0.066056
vt 0.933944 0.066056
vt 0.919790 0.080210
vt 0.420081 0.075259
vt 0.822703 0.924521
vt 0.822704 0.844423
vt 0.856914 0.038197
vt 0.864574 0.019703
vt 0.864574 0.019703
vt 0.856914 0.038197
vt 0.905650 0.924521
vt 0.905650 0.844423
vn -0.0258 0.9955 0.0909
vn -0.0135 0.5227 0.8524
vn 0.0135 0.5227 0.8524
vn 0.0258 0.9955 0.0909
vn 0.0003 -0.0112 0.9999
vn -0.0003 -0.0112 0.9999
vn -0.9955 0.0258 -0.0909
vn -0.5227 0.0135 -0.8524
vn -0.5227 -0.0135 -0.8524
vn -0.9955 -0.0258 -0.0909
vn 0.0112 -0.0003 -0.9999
vn 0.0112 0.0003 -0.9999
vn 0.0003 -0.0112 -0.9999
vn -0.0135 0.5227 -0.8524
vn 0.0135 0.5227 -0.8524
vn -0.0003 -0.0112 -0.9999
vn -0.0258 0.9955 -0.0909
vn 0.0258 0.9955 -0.0909
vn -0.0112 -0.0003 -0.9999
vn 0.5227 0.0135 -0.8524
vn 0.5227 -0.0135 -0.8524
vn -0.0112 0.0003 -0.9999
vn 0.9955 0.0258 -0.0909
vn 0.9955 -0.0258 -0.0909
vn 0.0003 0.0112 0.9999
vn -0.0135 -0.5227 0.8524
vn 0.0135 -0.5227 0.8524
vn -0.0003 0.0112 0.9999
vn -0.0258 -0.9955 0.0909
vn 0.0258 -0.9955 0.0909
vn 0.0112 -0.0003 0.9999
vn -0.5227 0.0135 0.8524
vn -0.5227 -0.0135 0.8524
vn 0.0112 0.0003 0.9999
vn -0.9955 0.0258 0.0909
vn -0.9955 -0.0258 0.0909
vn -0.0258 -0.9955 -0.0909
vn -0.0135 -0.5227 -0.8524
vn 0.0135 -0.5227 -0.8524
vn 0.0258 -0.9955 -0.0909
vn 0.0003 0.0112 -0.9999
vn -0.0003 0.0112 -0.9999
vn 0.9955 0.0258 0.0909
vn 0.5227 0.0135 0.8524
vn 0.5227 -0.0135 0.8524
vn 0.9955 -0.0258 0.0909
vn -0.0112 -0.0003 0.9999
vn -0.0112 0.0003 0.9999
vn -0.9202 0.3811 0.0895
vn -0.9202 0.3811 -0.0895
vn -0.7043 0.7043 0.0893
vn -0.7043 0.7043 -0.0893
vn -0.3811 0.9202 0.0894
vn -0.3811 0.9202 -0.0894
vn 0.3811 0.9202 0.0894
vn 0.3811 0.9202 -0.0894
vn 0.7043 0.7043 0.0893
vn 0.7043 0.7043 -0.0893
vn 0.9202 0.3811 0.0895
vn 0.9202 0.3811 -0.0895
vn -0.3811 -0.9202 0.0895
vn -0.3811 -0.9202 -0.0895
vn -0.7043 -0.7043 0.0893
vn -0.7043 -0.7043 -0.0893
vn -0.9202 -0.3811 0.0895
vn -0.9202 -0.3811 -0.0895
vn 0.9202 -0.3811 0.0895
vn 0.9202 -0.3811 -0.0895
vn 0.7043 -0.7043 0.0893
vn 0.7043 -0.7043 -0.0893
vn 0.3811 -0.9202 0.0895
vn 0.3811 -0.9202 -0.0894
vn 0.2136 0.5158 0.8297
vn -0.0109 -0.0265 0.9996
vn -0.5158 0.2135 -0.8297
vn 0.0265 -0.0109 -0.9996
vn 0.2135 0.5158 -0.8297
vn -0.0109 -0.0265 -0.9996
vn 0.5158 -0.2135 -0.8297
vn -0.0265 0.0109 -0.9996
vn -0.2136 -0.5158 0.8297
vn 0.0109 0.0265 0.9996
vn -0.5158 0.2136 0.8297
vn 0.0265 -0.0109 0.9996
vn -0.2135 -0.5158 -0.8297
vn 0.0109 0.0265 -0.9996
vn 0.5158 -0.2136 0.8297
vn -0.0265 0.0109 0.9996
vn -0.3966 0.3966 0.8279
vn 0.0163 -0.0163 0.9997
vn -0.3966 0.3966 -0.8279
vn 0.0163 -0.0163 -0.9997
vn -0.2136 0.5158 0.8297
vn 0.0109 -0.0265 0.9996
vn -0.2135 0.5158 -0.8297
vn 0.0109 -0.0265 -0.9996
vn 0.3966 0.3966 0.8279
vn -0.0163 -0.0163 0.9997
vn 0.3966 0.3966 -0.8279
vn -0.0163 -0.0163 -0.9997
vn 0.5158 0.2136 0.8297
vn -0.0265 -0.0109 0.9996
vn 0.5158 0.2135 -0.8297
vn -0.0265 -0.0109 -0.9996
vn -0.3966 -0.3966 0.8279
vn 0.0163 0.0163 0.9997
vn -0.3966 -0.3966 -0.8279
vn 0.0163 0.0163 -0.9997
vn -0.5158 -0.2136 0.8297
vn 0.0265 0.0109 0.9996
vn -0.5158 -0.2135 -0.8297
vn 0.0265 0.0109 -0.9996
vn 0.3966 -0.3966 0.8279
vn -0.0163 0.0163 0.9997
vn 0.3966 -0.3966 -0.8279
vn -0.0163 0.0163 -0.9997
vn 0.2136 -0.5158 0.8297
vn -0.0109 0.0265 0.9996
vn 0.2135 -0.5158 -0.8297
vn -0.0109 0.0265 -0.9996
usemtl lambert4
s 1
f 51/49/43 50/50/44 53/51/45 52/52/46
f 50/53/44 49/54/47 54/55/48 53/56/45
f 57/57/49 56/58/50 59/59/51 58/60/52
f 56/61/50 55/62/53 60/63/54 59/64/51
f 63/65/55 62/66/56 65/67/57 64/68/58
f 62/69/56 61/70/59 66/71/60 65/72/57
f 69/73/61 68/74/62 71/75/63 70/76/64
f 68/77/62 67/78/65 72/79/66 71/80/63
f 75/81/67 74/82/68 77/83/69 76/84/70
f 74/85/68 73/86/71 78/87/72 77/88/69
f 81/89/73 80/90/74 83/91/75 82/92/76
f 80/93/74 79/94/77 84/95/78 83/96/75
f 87/97/79 86/98/80 89/99/81 88/100/82
f 86/101/80 85/102/83 90/103/84 89/104/81
f 93/105/85 92/106/86 95/107/87 94/108/88
f 92/109/86 91/110/89 96/111/90 95/112/87
f 61/70/59 51/49/43 52/52/46 66/71/60
f 73/86/71 87/97/79 88/100/82 78/87/72
f 94/108/88 72/79/66 67/78/65 93/105/85
f 58/60/52 84/95/78 79/94/77 57/57/49
f 79/94/77 97/113/91 102/114/92 57/57/49
f 97/113/91 103/115/93 108/116/94 102/114/92
f 103/117/93 109/118/95 114/119/96 108/120/94
f 109/118/95 51/49/43 61/70/59 114/119/96
f 52/52/46 115/121/97 120/122/98 66/71/60
f 115/121/97 121/123/99 126/124/100 120/122/98
f 121/125/99 127/126/101 132/127/102 126/128/100
f 127/126/101 93/105/85 67/78/65 132/127/102
f 73/86/71 133/129/103 138/130/104 87/97/79
f 133/129/103 139/131/105 144/132/106 138/130/104
f 139/133/105 145/134/107 150/135/108 144/136/106
f 145/134/107 84/95/78 58/60/52 150/135/108
f 94/108/88 151/137/109 156/138/110 72/79/66
f 151/137/109 157/139/111 162/140/112 156/138/110
f 157/141/111 163/142/113 168/143/114 162/144/112
f 163/142/113 78/87/72 88/100/82 168/143/114
f 52/52/46 53/51/45 116/145/115 115/121/97
f 53/56/45 54/55/48 117/146/116 116/147/115
f 55/62/53 56/61/50 101/148/117 100/149/118
f 56/58/50 57/57/49 102/114/92 101/150/117
f 64/68/58 65/67/57 119/151/119 118/152/120
f 65/72/57 66/71/60 120/122/98 119/153/119
f 70/76/64 71/75/63 155/154/121 154/155/122
f 71/80/63 72/79/66 156/138/110 155/156/121
f 73/86/71 74/85/68 134/157/123 133/129/103
f 74/82/68 75/81/67 135/158/124 134/159/123
f 79/94/77 80/93/74 98/160/125 97/113/91
f 80/90/74 81/89/73 99/161/126 98/162/125
f 85/102/83 86/101/80 137/163/127 136/164/128
f 86/98/80 87/97/79 138/130/104 137/165/127
f 94/108/88 95/107/87 152/166/129 151/137/109
f 95/112/87 96/111/90 153/167/130 152/168/129
f 97/113/91 98/160/125 104/169/131 103/115/93
f 98/162/125 99/161/126 105/170/132 104/171/131
f 100/149/118 101/148/117 107/172/133 106/173/134
f 101/150/117 102/114/92 108/116/94 107/174/133
f 103/117/93 104/175/131 110/176/135 109/118/95
f 104/171/131 105/170/132 111/177/136 110/178/135
f 106/173/134 107/172/133 113/179/137 112/180/138
f 107/181/133 108/120/94 114/119/96 113/182/137
f 49/54/47 50/53/44 110/178/135 111/177/136
f 50/50/44 51/49/43 109/118/95 110/176/135
f 61/70/59 62/69/56 113/182/137 114/119/96
f 62/66/56 63/65/55 112/180/138 113/179/137
f 115/121/97 116/145/115 122/183/139 121/123/99
f 116/147/115 117/146/116 123/184/140 122/185/139
f 118/152/120 119/151/119 125/186/141 124/187/142
f 119/153/119 120/122/98 126/124/100 125/188/141
f 121/125/99 122/189/139 128/190/143 127/126/101
f 122/185/139 123/184/140 129/191/144 128/192/143
f 124/187/142 125/186/141 131/193/145 130/194/146
f 125/195/141 126/128/100 132/127/102 131/196/145
f 91/110/89 92/109/86 128/192/143 129/191/144
f 92/106/86 93/105/85 127/126/101 128/190/143
f 67/78/65 68/77/62 131/196/145 132/127/102
f 68/74/62 69/73/61 130/194/146 131/193/145
f 133/129/103 134/157/123 140/197/147 139/131/105
f 134/159/123 135/158/124 141/198/148 140/199/147
f 136/164/128 137/163/127 143/200/149 142/201/150
f 137/165/127 138/130/104 144/132/106 143/202/149
f 139/133/105 140/203/147 146/204/151 145/134/107
f 140/199/147 141/198/148 147/205/152 146/206/151
f 142/201/150 143/200/149 149/207/153 148/208/154
f 143/209/149 144/136/106 150/135/108 149/210/153
f 82/92/76 83/91/75 146/206/151 147/205/152
f 83/96/75 84/95/78 145/134/107 146/204/151
f 58/60/52 59/59/51 149/210/153 150/135/108
f 59/64/51 60/63/54 148/208/154 149/207/153
f 151/137/109 152/166/129 158/211/155 157/139/111
f 152/168/129 153/167/130 159/212/156 158/213/155
f 154/155/122 155/154/121 161/214/157 160/215/158
f 155/156/121 156/138/110 162/140/112 161/216/157
f 157/141/111 158/217/155 164/218/159 163/142/113
f 158/213/155 159/212/156 165/219/160 164/220/159
f 160/215/158 161/214/157 167/221/161 166/222/162
f 161/223/157 162/144/112 168/143/114 167/224/161
f 76/84/70 77/83/69 164/220/159 165/219/160
f 77/88/69 78/87/72 163/142/113 164/218/159
f 88/100/82 89/99/81 167/224/161 168/143/114
f 89/104/81 90/103/84 166/222/162 167/221/161
o big_image_Untitled.003
v -0.809546 0.904158 -0.053078
v -0.809545 0.809324 -0.053078
v -0.904379 0.809324 -0.053078
v -0.866394 0.866173 -0.053078
v -0.918209 0.739795 -0.053078
v 0.904379 0.809324 -0.047763
v 0.809546 0.809324 -0.053078
v 0.809546 0.904158 -0.047763
v 0.866394 0.866173 -0.047763
v 0.918209 0.739795 -0.053078
v 0.809546 -0.809324 -0.053078
v -0.809546 -0.809324 -0.053078
v 0.740016 0.917988 -0.053078
v 0.904379 -0.809324 -0.053078
v 0.866394 -0.866173 -0.053078
v 0.809546 -0.904158 -0.053078
v 0.740016 -0.917988 -0.053078
v -0.740016 -0.917988 -0.053078
v -0.904379 -0.809324 -0.053078
v -0.809546 -0.904158 -0.053078
v -0.866394 -0.866173 -0.053078
v 0.918209 -0.739795 -0.053078
v -0.740016 0.917988 -0.053078
v -0.918209 -0.739795 -0.053078
v 0.809546 0.904158 0.053078
v 0.809545 0.809324 0.053078
v 0.904379 0.809324 0.053078
v 0.866394 0.866173 0.053078
v 0.918209 0.739795 0.053078
v -0.904379 0.809324 0.053078
v -0.809546 0.809324 0.053078
v -0.809546 0.904158 0.053078
v -0.866394 0.866173 0.053078
v -0.918209 0.739795 0.053078
v -0.809546 -0.809324 0.053078
v 0.809546 -0.809324 0.053078
v -0.740016 0.917988 0.053078
v -0.809546 -0.904158 0.053078
v -0.904379 -0.809324 0.053078
v -0.866394 -0.866173 0.053078
v 0.740016 -0.917988 0.053078
v -0.740016 -0.917988 0.053078
v 0.809546 -0.904158 0.053078
v 0.866394 -0.866173 0.053078
v 0.904379 -0.809324 0.053078
v -0.918209 -0.739795 0.053078
v 0.740016 0.917988 0.053078
v 0.918209 -0.739795 0.053078
vt 0.940828 0.992468
vt 0.940828 0.940814
vt 0.992469 0.940814
vt 0.971784 0.971778
vt 1.000000 0.902944
vt 0.007531 0.940814
vt 0.059171 0.940814
vt 0.059171 0.992468
vt 0.028215 0.971778
vt -0.000000 0.902944
vt 0.059171 0.059186
vt 0.940828 0.059186
vt 0.097033 1.000000
vt 0.007531 0.059186
vt 0.028215 0.028222
vt 0.059171 0.007533
vt 0.097033 0.000000
vt 0.902967 0.000000
vt 0.992469 0.059186
vt 0.940828 0.007533
vt 0.971784 0.028222
vt -0.000000 0.097057
vt 0.902967 1.000000
vt 1.000000 0.097057
vt 0.940828 0.992468
vt 0.940828 0.940814
vt 0.992469 0.940814
vt 0.971784 0.971778
vt 1.000000 0.902944
vt 0.007531 0.940814
vt 0.059171 0.940814
vt 0.059171 0.992468
vt 0.028215 0.971778
vt -0.000000 0.902944
vt 0.059171 0.059186
vt 0.940828 0.059186
vt 0.097033 1.000000
vt 0.059171 0.007533
vt 0.007531 0.059186
vt 0.028215 0.028222
vt 0.902967 0.000000
vt 0.097033 0.000000
vt 0.940828 0.007533
vt 0.971784 0.028222
vt 0.992469 0.059186
vt -0.000000 0.097057
vt 0.902967 1.000000
vt 1.000000 0.097057
vn 0.0109 -0.0265 -0.9996
vn -0.0000 0.0000 -1.0000
vn 0.0265 -0.0109 -0.9996
vn 0.0163 -0.0163 -0.9997
vn 0.0112 -0.0003 -0.9999
vn -0.0265 -0.0109 -0.9996
vn -0.0109 -0.0265 -0.9996
vn -0.0163 -0.0163 -0.9997
vn -0.0113 -0.0003 -0.9999
vn -0.0003 -0.0113 -0.9999
vn -0.0265 0.0109 -0.9996
vn -0.0163 0.0163 -0.9997
vn -0.0109 0.0265 -0.9996
vn -0.0003 0.0112 -0.9999
vn 0.0003 0.0112 -0.9999
vn 0.0265 0.0109 -0.9996
vn 0.0109 0.0265 -0.9996
vn 0.0163 0.0163 -0.9997
vn -0.0112 0.0003 -0.9999
vn 0.0003 -0.0112 -0.9999
vn 0.0112 0.0003 -0.9999
vn -0.0109 -0.0265 0.9996
vn 0.0000 -0.0000 1.0000
vn -0.0265 -0.0109 0.9996
vn -0.0163 -0.0163 0.9997
vn -0.0112 -0.0003 0.9999
vn 0.0265 -0.0109 0.9996
vn 0.0109 -0.0265 0.9996
vn 0.0163 -0.0163 0.9997
vn 0.0112 -0.0003 0.9999
vn 0.0003 -0.0112 0.9999
vn 0.0109 0.0265 0.9996
vn 0.0265 0.0109 0.9996
vn 0.0163 0.0163 0.9997
vn -0.0003 0.0112 0.9999
vn 0.0003 0.0112 0.9999
vn -0.0109 0.0265 0.9996
vn -0.0163 0.0163 0.9997
vn -0.0265 0.0109 0.9996
vn 0.0112 0.0003 0.9999
vn -0.0003 -0.0112 0.9999
vn -0.0112 0.0003 0.9999
usemtl lambert2
s 1
f 169/225/163 170/226/164 171/227/165 172/228/166
f 170/226/164 173/229/167 171/227/165
f 174/230/168 175/231/164 176/232/169 177/233/170
f 178/234/171 175/231/164 174/230/168
f 175/231/164 179/235/164 180/236/164 170/226/164
f 176/232/169 175/231/164 181/237/172
f 182/238/173 183/239/174 184/240/175 179/235/164
f 180/236/164 179/235/164 185/241/176 186/242/177
f 187/243/178 180/236/164 188/244/179 189/245/180
f 190/246/181 179/235/164 175/231/164 178/234/171
f 191/247/182 170/226/164 169/225/163
f 181/237/172 175/231/164 170/226/164 191/247/182
f 170/226/164 180/236/164 192/248/183 173/229/167
f 180/236/164 186/242/177 188/244/179
f 192/248/183 180/236/164 187/243/178
f 182/238/173 179/235/164 190/246/181
f 185/241/176 179/235/164 184/240/175
f 193/249/184 194/250/185 195/251/186 196/252/187
f 194/250/185 197/253/188 195/251/186
f 198/254/189 199/255/185 200/256/190 201/257/191
f 202/258/192 199/255/185 198/254/189
f 203/259/185 204/260/185 194/250/185 199/255/185
f 200/256/190 199/255/185 205/261/193
f 206/262/194 203/259/185 207/263/195 208/264/196
f 209/265/197 204/260/185 203/259/185 210/266/198
f 211/267/199 212/268/200 213/269/201 204/260/185
f 214/270/202 203/259/185 199/255/185 202/258/192
f 215/271/203 194/250/185 193/249/184
f 205/261/193 199/255/185 194/250/185 215/271/203
f 204/260/185 216/272/204 197/253/188 194/250/185
f 207/263/195 203/259/185 214/270/202
f 210/266/198 203/259/185 206/262/194
f 211/267/199 204/260/185 209/265/197
f 204/260/185 213/269/201 216/272/204
